<svg width="168" height="86" viewBox="0 0 168 86" fill="none" xmlns="http://www.w3.org/2000/svg">
<path d="M84 86C61.935 86 41.1405 81.742 25.4469 74.0082C9.03762 65.923 0 54.9109 0 43C0 31.0891 9.03762 20.077 25.4469 11.9918C41.1405 4.25801 61.935 0 84 0C106.065 0 126.86 4.25801 142.553 11.9918C158.962 20.0786 168 31.0891 168 43C168 54.9109 158.962 65.923 142.553 74.0082C126.86 81.742 106.065 86 84 86ZM84 6.37613C62.9023 6.37613 43.1174 10.3993 28.2896 17.7054C14.1792 24.6585 6.40744 33.6426 6.40744 43C6.40744 52.3574 14.1792 61.3415 28.2865 68.2946C43.1174 75.6007 62.9023 79.6239 84 79.6239C105.098 79.6239 124.883 75.6007 139.71 68.2946C153.821 61.3415 161.589 52.3574 161.589 43C161.589 33.6426 153.818 24.6585 139.71 17.7054C124.883 10.3993 105.098 6.37613 84 6.37613Z" fill="#2C2DB9"/>
<path d="M16.5656 50.3683L24.5092 49.5907C24.9875 52.2459 25.958 54.195 27.4207 55.4381C28.8835 56.6812 30.8557 57.3033 33.3375 57.3043C35.9661 57.3043 37.9456 56.7507 39.2761 55.6434C40.6065 54.5361 41.2733 53.2402 41.2764 51.7555C41.3004 50.8713 41.0017 50.0083 40.4356 49.3264C39.8751 48.6576 38.8958 48.0765 37.4976 47.583C36.5412 47.2533 34.3621 46.6676 30.9604 45.8257C26.5846 44.7464 23.5111 43.4199 21.74 41.8461C19.2583 39.6315 18.0169 36.9323 18.0159 33.7484C18.0146 31.7001 18.6243 29.6975 19.7677 27.9943C20.9367 26.21 22.6193 24.8514 24.8155 23.9183C27.0118 22.9852 29.6649 22.5186 32.7748 22.5186C37.8497 22.5186 41.6702 23.6254 44.2364 25.8389C46.8025 28.0524 48.1496 31.0072 48.2777 34.7033L40.1121 35.0594C39.7621 32.991 39.0125 31.5043 37.8633 30.5992C36.7141 29.6941 34.9904 29.241 32.692 29.24C30.3197 29.24 28.4621 29.7252 27.1191 30.6956C26.7101 30.9705 26.3771 31.3433 26.1507 31.7797C25.9243 32.2162 25.8118 32.7022 25.8236 33.1932C25.8236 34.145 26.2278 34.9593 27.0363 35.6363C28.0656 36.4969 30.5661 37.3932 34.5377 38.3252C38.5092 39.2573 41.4473 40.223 43.3518 41.2225C45.1868 42.1567 46.7314 43.5707 47.8198 45.3125C48.8961 47.0418 49.4342 49.1781 49.4342 51.7213C49.4414 54.0274 48.7723 56.2855 47.5088 58.2187C46.2221 60.2311 44.4015 61.7272 42.0469 62.7069C39.6923 63.6866 36.7594 64.176 33.2484 64.175C28.1349 64.175 24.2087 62.9993 21.4696 60.6479C18.7306 58.2965 17.0959 54.87 16.5656 50.3683Z" fill="#2C2DB9"/>
<path d="M56.0667 63.4612V23.22H64.2307V63.4612H56.0667Z" fill="#2C2DB9"/>
<path d="M72.2306 63.4612V23.5497H80.3962V56.6745H100.698V63.4549L72.2306 63.4612Z" fill="#2C2DB9"/>
<path d="M104.863 43.5879C104.863 39.4885 105.48 36.0479 106.712 33.2663C107.63 31.2203 108.904 29.3522 110.477 27.7486C111.953 26.1991 113.732 24.9661 115.704 24.1251C118.224 23.0645 121.129 22.5342 124.422 22.5342C130.38 22.5342 135.148 24.3729 138.724 28.0503C142.301 31.7277 144.089 36.8406 144.089 43.3888C144.089 49.8862 142.314 54.969 138.765 58.6371C135.215 62.3052 130.471 64.1397 124.533 64.1408C118.519 64.1408 113.737 62.3155 110.188 58.6651C106.638 55.0146 104.863 49.9889 104.863 43.5879ZM113.277 43.3126C113.277 47.8692 114.335 51.3232 116.45 53.6746C118.565 56.026 121.25 57.2022 124.504 57.2032C127.759 57.2032 130.43 56.0363 132.517 53.7026C134.604 51.3688 135.646 47.8692 135.642 43.2037C135.642 38.5911 134.626 35.1506 132.593 32.8822C130.561 30.6137 127.862 29.479 124.498 29.4779C121.132 29.4779 118.419 30.6262 116.361 32.9226C114.302 35.2191 113.274 38.6824 113.277 43.3126Z" fill="#2C2DB9"/>
<path d="M146.318 28.1483C146.865 28.1502 147.403 28.2904 147.881 28.5557C148.378 28.8237 148.788 29.2286 149.061 29.7221C149.341 30.2026 149.489 30.7479 149.49 31.3034C149.492 31.8589 149.346 32.405 149.068 32.8868C148.796 33.3787 148.389 33.7837 147.895 34.0548C147.413 34.3299 146.867 34.4747 146.312 34.4747C145.756 34.4747 145.21 34.3299 144.728 34.0548C144.234 33.7837 143.827 33.3787 143.555 32.8868C143.277 32.405 143.132 31.8589 143.133 31.3034C143.134 30.7479 143.282 30.2026 143.563 29.7221C143.835 29.2286 144.245 28.8237 144.743 28.5557C145.224 28.2883 145.766 28.1481 146.318 28.1483ZM146.318 28.7703C145.88 28.7724 145.45 28.8848 145.068 29.0969C144.669 29.3118 144.34 29.6355 144.121 30.03C143.895 30.4166 143.775 30.8554 143.774 31.3024C143.772 31.7495 143.888 32.1891 144.111 32.5774C144.329 32.9721 144.654 33.2981 145.049 33.5182C145.435 33.7403 145.874 33.8572 146.32 33.8572C146.767 33.8572 147.205 33.7403 147.592 33.5182C147.985 33.2967 148.31 32.9711 148.529 32.5774C148.751 32.1915 148.868 31.7546 148.868 31.3099C148.867 30.8606 148.748 30.4194 148.523 30.03C148.302 29.6354 147.972 29.3117 147.573 29.0969C147.19 28.8854 146.76 28.7731 146.323 28.7703H146.318ZM144.877 33.0066V29.6475H145.561C146.203 29.6475 146.563 29.65 146.641 29.6552C146.825 29.6634 147.005 29.7089 147.17 29.789C147.301 29.867 147.409 29.9787 147.482 30.1124C147.567 30.2583 147.611 30.4244 147.609 30.593C147.614 30.8235 147.528 31.0469 147.37 31.215C147.192 31.3976 146.955 31.5112 146.701 31.5354C146.786 31.5649 146.865 31.6074 146.937 31.6614C147.021 31.7397 147.098 31.8262 147.165 31.9195C147.19 31.9522 147.273 32.089 147.413 32.3285L147.812 33.005H146.966L146.684 32.4607C146.572 32.2032 146.413 31.9685 146.215 31.7687C146.079 31.6706 145.914 31.6208 145.746 31.6272H145.566V33.005L144.877 33.0066ZM145.561 31.1H145.84C146.086 31.1113 146.334 31.0962 146.577 31.0549C146.667 31.0286 146.746 30.9741 146.802 30.8993C146.858 30.8248 146.887 30.734 146.885 30.6412C146.886 30.5518 146.858 30.4645 146.805 30.3924C146.747 30.3171 146.666 30.2626 146.574 30.2369C146.332 30.1934 146.085 30.1773 145.84 30.1886H145.561V31.1Z" fill="#2C2DB9"/>
</svg>
